<?xml version="1.0" standalone="no"?>
<!DOCTYPE svg PUBLIC "-//W3C//DTD SVG 20010904//EN"
 "http://www.w3.org/TR/2001/REC-SVG-20010904/DTD/svg10.dtd">
<svg version="1.0" xmlns="http://www.w3.org/2000/svg"
 width="1080.000000pt" height="1080.000000pt" viewBox="0 0 1080.000000 1080.000000"
 preserveAspectRatio="xMidYMid meet">
<metadata>
Created by potrace 1.14, written by Peter Selinger 2001-2017
</metadata>
<g transform="translate(0.000000,1080.000000) scale(0.100000,-0.100000)"
fill="#000000" stroke="none">
<path d="M7681 7679 c-45 -9 -181 -92 -181 -110 0 -6 -4 -8 -8 -5 -11 7 -98
-64 -94 -76 2 -6 -3 -8 -10 -6 -7 3 -35 -10 -63 -28 -27 -19 -42 -34 -33 -34
9 0 19 5 21 10 3 6 4 5 3 -2 -1 -7 -15 -14 -29 -16 -17 -2 -27 -9 -27 -20 0
-15 -2 -15 -10 -2 -7 10 -10 11 -10 2 0 -7 -10 -17 -22 -22 -37 -16 -117 -77
-111 -84 4 -3 -1 -6 -10 -6 -10 0 -17 -5 -17 -11 0 -5 -4 -8 -9 -4 -17 10 -28
-29 -22 -78 1 -13 86 52 86 65 0 6 7 13 15 15 13 4 13 3 0 -6 -8 -6 -10 -11
-4 -11 6 0 22 10 36 23 14 12 38 30 54 39 16 10 28 22 26 28 -1 5 4 9 10 8 7
-2 12 3 10 10 -1 8 2 11 7 7 11 -6 51 16 85 47 11 10 24 18 28 18 5 0 6 5 2
12 -4 6 -3 8 4 4 6 -3 16 0 24 7 7 7 46 34 86 61 39 27 80 57 90 67 10 9 38
30 62 45 23 16 54 37 69 46 22 16 23 18 6 17 -11 -1 -40 -5 -64 -10z m-478
-353 c4 -10 1 -13 -8 -9 -8 3 -12 9 -9 14 7 12 11 11 17 -5z m-133 -86 c0 -5
-5 -10 -11 -10 -5 0 -7 5 -4 10 3 6 8 10 11 10 2 0 4 -4 4 -10z"/>
<path d="M7960 7588 c-1 -32 -36 -107 -63 -133 -12 -12 -71 -45 -130 -74 -144
-70 -161 -98 -237 -375 -18 -66 -41 -127 -51 -137 -10 -10 -41 -20 -76 -24
-171 -20 -214 -43 -298 -155 -36 -48 -65 -92 -65 -99 0 -6 -4 -11 -9 -11 -11
0 -94 -112 -94 -127 0 -7 -2 -11 -5 -8 -3 2 -26 -24 -51 -59 -25 -36 -188
-259 -362 -498 -174 -238 -414 -568 -534 -733 -120 -165 -263 -361 -318 -435
l-99 -135 5 -51 c7 -68 38 -127 101 -192 71 -75 109 -92 230 -104 105 -10 135
-22 162 -63 21 -32 11 -74 -27 -112 -16 -17 -105 -70 -197 -117 -212 -110
-274 -155 -307 -221 -34 -69 -43 -128 -54 -370 -6 -115 -17 -248 -25 -295 -21
-119 -72 -258 -118 -323 l-21 -30 99 7 c553 39 1009 240 1346 595 129 135 215
260 303 436 109 221 164 403 201 675 21 150 24 530 5 685 -48 394 -156 722
-348 1052 -29 51 -53 98 -53 105 0 11 122 188 169 244 5 6 26 35 47 65 83 114
139 143 324 161 86 8 124 16 135 27 8 9 30 77 49 151 39 155 60 219 88 274 20
40 74 96 93 96 23 0 114 50 150 81 68 60 93 150 59 217 -18 38 -24 40 -24 10z"/>
<path d="M7002 7224 c-18 -13 -21 -19 -11 -30 6 -8 9 -17 5 -21 -3 -3 -6 -2
-6 4 0 6 -7 14 -16 17 -14 5 -15 4 -4 -9 10 -12 11 -18 1 -28 -10 -9 -11 -8
-6 6 5 12 2 17 -10 17 -10 0 -13 -5 -9 -12 5 -8 2 -9 -9 -5 -19 7 -32 -8 -16
-19 8 -5 9 -3 4 6 -5 9 -4 11 4 6 6 -4 9 -12 5 -17 -3 -6 -8 -8 -11 -5 -3 3
-12 -1 -20 -9 -8 -8 -20 -15 -26 -15 -7 0 -4 5 6 11 9 5 17 14 17 19 0 6 -11
0 -25 -12 -29 -25 -31 -40 -10 -58 12 -10 13 -16 4 -26 -8 -10 -8 -14 0 -14 6
0 11 5 11 11 0 5 4 8 9 4 5 -3 12 -1 16 5 3 5 1 10 -5 10 -7 0 -5 7 4 16 9 8
13 20 10 26 -5 7 1 9 15 5 16 -4 26 1 37 19 9 13 20 22 24 19 7 -4 13 5 19 27
1 4 6 21 11 38 10 35 11 34 -18 14z"/>
<path d="M4634 7056 c-4 -28 -8 -55 -9 -61 -1 -5 -5 -19 -9 -30 -5 -11 -20
-49 -34 -84 -21 -54 -55 -118 -105 -194 -7 -10 -41 -48 -76 -85 -67 -68 -130
-118 -366 -289 -288 -210 -649 -520 -767 -661 -245 -292 -399 -634 -454 -1004
-23 -160 -15 -501 16 -642 105 -488 399 -865 848 -1090 51 -26 116 -56 145
-67 37 -15 67 -38 107 -82 148 -164 449 -316 675 -342 l50 -5 -70 24 c-311
110 -599 347 -856 705 -204 285 -251 571 -140 857 35 90 84 163 163 242 114
115 237 186 538 308 187 77 291 130 357 183 90 73 117 133 178 400 19 84 46
179 60 210 43 93 166 191 239 191 34 0 96 -58 96 -89 0 -12 -11 -44 -25 -71
-77 -153 -67 -274 32 -390 36 -41 108 -100 124 -100 7 0 281 347 319 404 8 12
43 58 77 102 34 43 183 235 330 426 148 190 311 401 363 468 52 67 102 132
110 143 8 12 25 33 37 47 13 14 23 28 23 32 0 4 12 20 26 35 27 29 161 202
179 231 6 9 16 22 24 28 8 6 11 16 6 24 -5 9 -4 11 3 6 15 -9 66 69 58 89 -3
8 -1 15 4 15 6 0 10 10 10 23 0 18 -2 19 -10 7 -6 -9 -10 -10 -10 -3 0 6 5 15
10 18 6 3 10 11 10 16 0 6 -4 8 -9 4 -5 -3 -12 -1 -16 4 -12 20 -35 -2 -47
-43 -6 -22 -11 -44 -10 -48 1 -5 -2 -8 -8 -8 -5 0 -10 -7 -10 -15 0 -8 -3 -15
-8 -15 -4 0 -13 -9 -20 -21 -8 -12 -10 -19 -5 -16 5 3 9 -2 9 -12 0 -11 -8
-17 -21 -17 -11 1 -19 -5 -17 -12 1 -6 -4 -11 -10 -10 -7 2 -12 -5 -12 -14 1
-10 -3 -16 -8 -15 -5 1 -15 -7 -21 -18 -7 -11 -19 -27 -28 -35 -9 -8 -24 -27
-33 -42 -13 -19 -25 -26 -40 -24 -11 2 -20 8 -19 13 2 10 -75 98 -86 98 -13 0
-41 33 -41 48 0 16 -31 19 -43 3 -6 -7 -7 -4 -3 7 3 9 1 17 -4 17 -6 0 -10 5
-10 11 0 6 7 8 18 4 12 -4 14 -3 6 5 -6 6 -18 8 -27 4 -18 -7 -23 -24 -7 -24
6 0 10 -5 10 -11 0 -5 -4 -8 -10 -4 -5 3 -17 -6 -26 -20 -9 -14 -23 -25 -30
-25 -17 0 -18 17 -1 23 6 3 0 6 -14 6 -19 1 -28 -5 -32 -19 -3 -13 -13 -20
-29 -20 -20 1 -21 2 -5 11 36 21 15 29 -78 29 -95 0 -95 0 -95 -25 0 -22 4
-25 40 -25 29 0 40 -4 40 -15 0 -11 -13 -15 -54 -15 -44 0 -56 -4 -69 -22
l-16 -23 6 24 c5 19 3 22 -8 16 -7 -5 -31 -8 -53 -6 -22 2 -42 -2 -46 -9 -5
-9 -54 -13 -161 -15 -85 -1 -101 0 -36 2 94 3 117 6 117 18 0 13 -23 15 -139
15 -133 0 -140 1 -143 21 -3 18 -5 18 -21 6 -29 -21 -29 -111 0 -162 13 -22
23 -50 23 -62 0 -13 5 -23 10 -23 6 0 10 5 10 12 0 6 3 9 6 5 3 -3 2 -12 -2
-19 -5 -7 -9 -58 -10 -113 -1 -114 -23 -185 -78 -258 -128 -168 -378 -217
-565 -109 -104 59 -177 153 -188 240 -6 57 3 92 58 214 44 95 50 120 56 223 3
51 1 66 -7 55 -8 -12 -9 -9 -4 12 6 27 -12 98 -28 109 -5 3 -10 15 -13 27 -2
13 -12 35 -23 50 -10 15 -22 35 -25 45 -4 11 -12 15 -18 11 -7 -4 -10 -3 -6 2
7 13 -57 97 -76 100 -11 1 -17 -11 -23 -50z m2239 -81 c-3 -9 -8 -14 -10 -11
-3 3 -2 9 2 15 9 16 15 13 8 -4z m-372 -248 c-1 -12 -15 -9 -19 4 -3 6 1 10 8
8 6 -3 11 -8 11 -12z"/>
<path d="M5226 6995 c-3 -8 -1 -15 4 -15 6 0 10 7 10 15 0 8 -2 15 -4 15 -2 0
-6 -7 -10 -15z"/>
<path d="M5255 6960 c-3 -5 -1 -10 4 -10 6 0 11 5 11 10 0 6 -2 10 -4 10 -3 0
-8 -4 -11 -10z"/>
<path d="M5311 6944 c0 -11 3 -14 6 -6 3 7 2 16 -1 19 -3 4 -6 -2 -5 -13z"/>
<path d="M5261 6924 c0 -11 3 -14 6 -6 3 7 2 16 -1 19 -3 4 -6 -2 -5 -13z"/>
<path d="M6340 6865 c0 -8 5 -15 10 -15 6 0 10 7 10 15 0 8 -4 15 -10 15 -5 0
-10 -7 -10 -15z"/>
<path d="M5417 6758 c9 -10 17 -18 19 -18 1 0 2 8 1 18 0 10 -9 18 -19 18 -16
0 -16 -2 -1 -18z"/>
</g>
</svg>
